<svg xmlns="http://www.w3.org/2000/svg" viewBox="0 0 39.06 54.21"><defs><style>.cls-1,.cls-2{fill:#fff;}.cls-2{stroke:#fff;stroke-miterlimit:10;stroke-width:0.5px;}</style></defs><title>Asset 1</title><g id="Layer_2" data-name="Layer 2"><g id="Layer_1-2" data-name="Layer 1"><g id="Layer_2-2" data-name="Layer 2"><g id="Layer_1-2-2" data-name="Layer 1-2"><path class="cls-1" d="M29.07,41.21l-1.39-1.44a20.51,20.51,0,0,0,7.13-25.92A14.44,14.44,0,0,1,16.59,29.57l.18.2,6.88,7.1,6.15,6.35.43.45a1,1,0,0,1,0,1.38.94.94,0,0,1-1.33,0l0,0-3-3.1-5.43-5.62q-3.09-3.2-6.17-6.38L9.86,25.37a11.8,11.8,0,0,1-1.32-1.75A14.34,14.34,0,0,1,7.84,9a14.36,14.36,0,0,1,7.48-6.69l.21-.09V2.16H3.18a1,1,0,0,0-.79.34.92.92,0,0,0-.22.55V42.3a.92.92,0,0,0,.85.86H16.4a20.22,20.22,0,0,0,7.72-1.5l.22-.09,1.47,1.54-.15.09a22.65,22.65,0,0,1-9.77,2.14H1.24a1.48,1.48,0,0,1-.42,0,1,1,0,0,1-.77-1V1.25A2.26,2.26,0,0,1,.07.8a1,1,0,0,1,1-.8H16.36a22.19,22.19,0,0,1,9,2,22.67,22.67,0,0,1,6.69,36.66,24.3,24.3,0,0,1-2.85,2.42ZM8.24,15.73A12.29,12.29,0,1,0,20.63,3.44,12.29,12.29,0,0,0,8.24,15.73Z"/><path class="cls-2" d="M18.43,51v2.71a.18.18,0,0,1-.18.17.19.19,0,0,1-.2-.15V50.58c0-.12,0-.24.13-.3a.3.3,0,0,1,.36.13l1.14,1.45L20.51,53l.16.18V50.69a.67.67,0,0,1,0-.2.19.19,0,0,1,.22-.16h0a.18.18,0,0,1,.17.18v3.11c0,.12,0,.26-.12.32s-.26-.06-.35-.18l-1.8-2.31c-.1-.14-.21-.27-.32-.4Z"/><path class="cls-2" d="M26.16,52.43l.13.19.66.85a.91.91,0,0,1,.11.16.16.16,0,0,1,0,.23h0a.17.17,0,0,1-.23,0l-.16-.18-.79-1a.41.41,0,0,0-.37-.18h-.78v1c0,.28,0,.39-.2.39s-.18-.11-.18-.38V50.68a.38.38,0,0,1,0-.15c0-.15.06-.23.21-.23h1.66a.53.53,0,0,1,.24.06,1,1,0,0,1,.11,1.9A1.41,1.41,0,0,1,26.16,52.43Zm-1.48-1.74a5.7,5.7,0,0,0,0,1.43h1.19a1.19,1.19,0,0,0,.44-.14.6.6,0,0,0,.33-.47.66.66,0,0,0-.49-.79l-.15,0C25.59,50.66,25.14,50.69,24.68,50.69Z"/><path class="cls-2" d="M.25,52.08V50.61c0-.25.06-.31.31-.31a12.37,12.37,0,0,1,1.36.05,1.62,1.62,0,0,1,1.43,1.34,1.75,1.75,0,0,1-1.26,2.13,2.11,2.11,0,0,1-.35,0,8.55,8.55,0,0,1-1.24,0c-.19,0-.25-.06-.25-.26Zm.41,1.43a4.11,4.11,0,0,0,1.44-.1,1.25,1.25,0,0,0,.81-.85,1.4,1.4,0,0,0-.83-1.8,1.56,1.56,0,0,0-.43-.08h-1Z"/><path class="cls-2" d="M16.44,52.33h-.85c-.21,0-.3-.06-.3-.19s.08-.18.3-.18h.94c.23,0,.29.07.3.3s0,.61,0,.92a.4.4,0,0,1-.19.36,2.16,2.16,0,0,1-1.89.3,1.72,1.72,0,0,1-1.2-1.59,2,2,0,0,1,.25-1.12,1.75,1.75,0,0,1,1.77-.87,1.86,1.86,0,0,1,.91.3l.14.11a.17.17,0,0,1,0,.23.15.15,0,0,1-.21.07h0a1,1,0,0,1-.17-.1,1.47,1.47,0,0,0-.64-.24A1.4,1.4,0,0,0,14,51.82a1.08,1.08,0,0,0,0,.31A1.37,1.37,0,0,0,15,53.5a1.6,1.6,0,0,0,1.39-.2.21.21,0,0,0,.13-.19A4.89,4.89,0,0,1,16.44,52.33Z"/><path class="cls-2" d="M28.71,50.66v1.2h1.72c.16,0,.25.08.25.19s-.09.17-.26.17h-1.7v1.27h2.07a.14.14,0,0,1,.14.14s0,0,0,0a.28.28,0,0,1-.12.16.49.49,0,0,1-.17,0h-2c-.29,0-.33,0-.33-.33V50.62c0-.27.05-.32.32-.32h2.09a.17.17,0,0,1,.19.19.16.16,0,0,1-.18.16h-2Z"/><path class="cls-2" d="M5,50.66v1.21H6.71c.16,0,.25.08.24.19s-.09.17-.23.17H5v1.28H6.91c.21,0,.29.06.3.18s-.09.19-.3.19h-2c-.26,0-.3,0-.3-.31v-3c0-.28,0-.32.32-.32h2c.17,0,.24.06.24.18s-.07.18-.25.18H5Z"/><path class="cls-2" d="M33.55,52.94h-.73a.31.31,0,0,0-.37.21v0a4.83,4.83,0,0,1-.23.52.45.45,0,0,1-.11.17.23.23,0,0,1-.2,0,.15.15,0,0,1-.11-.18v0a.7.7,0,0,1,.08-.2l1.34-2.94v-.09a.31.31,0,0,1,.28-.21.3.3,0,0,1,.28.21c.25.53.49,1.07.74,1.6l.65,1.43.07.18a.19.19,0,0,1-.11.23.16.16,0,0,1-.22-.06h0a.6.6,0,0,1-.09-.15c-.09-.19-.18-.39-.26-.59a.22.22,0,0,0-.27-.16A2.07,2.07,0,0,1,33.55,52.94Zm0-2.15h-.06l-.79,1.78h1.64c-.24-.57-.5-1.2-.77-1.78Z"/><path class="cls-2" d="M9.5,53.94a2,2,0,0,1-1.22-.41.35.35,0,0,1-.13-.11.18.18,0,0,1,0-.25.16.16,0,0,1,.22,0l.2.14a1.49,1.49,0,0,0,1.26.25.86.86,0,0,0,.34-.18.54.54,0,0,0,0-.75l-.13-.1a4.44,4.44,0,0,0-.61-.22c-.22-.07-.45-.11-.66-.2a.82.82,0,0,1-.6-.87.88.88,0,0,1,.64-.86,1.77,1.77,0,0,1,1.61.21c.15.09.18.21.11.31a.21.21,0,0,1-.3,0h0a1.32,1.32,0,0,0-.79-.27,1.71,1.71,0,0,0-.55.09.51.51,0,0,0-.32.5.48.48,0,0,0,.31.47c.2.08.42.14.63.21s.45.12.66.21a.83.83,0,0,1,.54.77.94.94,0,0,1-.5.9A1.36,1.36,0,0,1,9.5,53.94Z"/><path class="cls-2" d="M36.76,53.52h1.7a.41.41,0,0,1,.22,0,.24.24,0,0,1,.12.17.79.79,0,0,1-.12.16s-.11,0-.17,0H36.69c-.29,0-.32,0-.32-.33V50.4a.16.16,0,0,1,.17-.15h0a.19.19,0,0,1,.21.14.81.81,0,0,1,0,.22v2.91Z"/><path class="cls-2" d="M12,52.09V50.47a.17.17,0,0,1,.19-.18.19.19,0,0,1,.2.18h0v3.08a.41.41,0,0,1,0,.22.28.28,0,0,1-.18.14.18.18,0,0,1-.19-.16.67.67,0,0,1,0-.2Z"/><path class="cls-1" d="M20.15,8h.27a1,1,0,0,1,.94.91.93.93,0,0,1-.84,1h0a6.82,6.82,0,0,0-1.74.3,5.65,5.65,0,0,0-4,4.8,5.76,5.76,0,0,0,4.53,6.39,8.39,8.39,0,0,0,1.11.13,1,1,0,0,1,.2,1.88,1.12,1.12,0,0,1-.32,0A7.72,7.72,0,0,1,18.86,8.18c.4-.09.8-.13,1.21-.19Z"/><path class="cls-1" d="M21,12.3a3.44,3.44,0,0,1,3.52,3.34,3.56,3.56,0,0,1-.19,1.21,3.28,3.28,0,0,1-2.7,2.27,4.74,4.74,0,0,1-1.19,0,.94.94,0,0,1-.91-.89,1,1,0,0,1,.71-1,1.93,1.93,0,0,1,.34,0,4.09,4.09,0,0,0,.7,0,1.49,1.49,0,0,0,1.32-1.62,1.53,1.53,0,0,0-1.49-1.4h-.63a.93.93,0,0,1-.95-.93v-.07a1,1,0,0,1,1-.94Z"/></g></g></g></g></svg>